<svg xmlns="http://www.w3.org/2000/svg" viewBox="0 0 624 213.6"><defs><style>.cls-1{fill:#1a1a1a;}</style></defs><title>Ресурс 2</title><g id="Слой_2" data-name="Слой 2"><g id="Слой_1-2" data-name="Слой 1"><path class="cls-1" d="M222,189.76a4.05,4.05,0,0,0,2.51-4c0-2.77-1.73-4.42-6.27-4.42H211V199h7.05c4.44,0,7-1.6,7-5.08A3.9,3.9,0,0,0,222,189.76Zm-8.61-6.32H218c3,0,4.12.84,4.12,2.74,0,1.72-1.47,2.75-3.74,2.75h-5Zm4.7,13.43h-4.7V191h4.95q4.43,0,4.42,2.82C222.71,195.94,221.26,196.87,218,196.87Z"/><path class="cls-1" d="M243,199l-5.62-7.34a5.1,5.1,0,0,0,4.34-5q0-5.34-6.88-5.33h-6.78V199h2.31v-6.95H235l5.27,6.95h2.8Zm-8.08-9h-4.55v-6.5h4.4c3.06,0,4.59,1.07,4.59,3.18S237.66,189.94,234.94,189.94Z"/><path class="cls-1" d="M252.58,181.25h-1.83L243,199l0,.07h2.34l2-4.49H256l2,4.49h2.4Zm-4.44,11.28,3.47-8.08,3.5,8.08Z"/><path class="cls-1" d="M262.26,181.29V199h2.3V181.29Z"/><path class="cls-1" d="M281,181.29v13.58l-10.86-13.58h-1.81V199h2.23V185.5L281.4,199h1.81V181.29Z"/><path class="cls-1" d="M294.55,181.29V199h2.3V181.29Z"/><path class="cls-1" d="M316,181.29l-6.52,8.93-6.74-8.93h-2.13V199h2.3V185.27l6.25,8.17h.55l6.06-8.17V199h2.3V181.29Z"/><path class="cls-1" d="M329.58,181.25h-1.83L320,199h2.36l2-4.49H333l2,4.49h2.4Zm-4.44,11.28,3.47-8.08,3.5,8.08Z"/><path class="cls-1" d="M346.75,190v2.11h4.89v3.47a7,7,0,0,1-4.59,1.52,6.93,6.93,0,0,1-5-1.88,6.63,6.63,0,0,1-2-5,6.89,6.89,0,0,1,1.88-5,7.43,7.43,0,0,1,10,.08l1.44-1.51q-2.16-2.69-6.68-2.68a9.24,9.24,0,0,0-6.42,15.7,9.31,9.31,0,0,0,6.7,2.51,9.73,9.73,0,0,0,6.84-2.69V190Z"/><path class="cls-1" d="M356.63,181.29V199h2.31V181.29Z"/><path class="cls-1" d="M375.36,181.29v13.58L364.5,181.29h-1.81V199h2.23V185.5L375.8,199h1.79V181.29Z"/><path class="cls-1" d="M389.44,190v2.11h4.89v3.47a7.65,7.65,0,0,1-9.6-.36,6.66,6.66,0,0,1-2-5,6.85,6.85,0,0,1,1.89-5,7.41,7.41,0,0,1,10,.08l1.45-1.51q-2.17-2.69-6.69-2.68a9.24,9.24,0,0,0-6.42,15.7,9.31,9.31,0,0,0,6.7,2.51,9.73,9.73,0,0,0,6.84-2.69V190Z"/><path class="cls-1" d="M412.39,181.29h-5.46V199h5.22c3.31,0,5.81-.87,7.5-2.57a8.82,8.82,0,0,0,2.54-6.55C422.19,185.27,419.59,181.29,412.39,181.29Zm-.09,15.58h-3.07V183.44h3.13c5.18,0,7.44,2.5,7.44,6.48C419.8,194.17,417.37,196.87,412.3,196.87Z"/><path class="cls-1" d="M431.81,181.25H430L422.2,199h2.35l2-4.49h8.69l2,4.49h2.4Zm-4.44,11.28,3.46-8.08,3.51,8.08Z"/><path class="cls-1" d="M437.2,181.29v2.15h6.15V199h2.31v-15.6h6.19v-2.15Z"/><path class="cls-1" d="M459.05,181.25h-1.83L449.45,199h2.34l2-4.49h8.69l2,4.49h2.4Zm-4.44,11.28,3.47-8.08,3.5,8.08Z"/><path class="cls-1" d="M483.51,189.25c-2.72-.74-5.47-1.16-5.47-3.37a2.13,2.13,0,0,1,1.3-2,6.05,6.05,0,0,1,2.84-.63,6.79,6.79,0,0,1,5,1.89l1.5-1.49q-2-2.6-6.46-2.59a7.49,7.49,0,0,0-4.74,1.39,4.28,4.28,0,0,0-1.83,3.49c0,6.53,10.95,4,10.95,8.38,0,1.69-1.69,2.76-3.82,2.76a7.6,7.6,0,0,1-6-2.86l-1.5,1.62a7.46,7.46,0,0,0,3,2.4,9.23,9.23,0,0,0,4.29,1,7.26,7.26,0,0,0,4.61-1.45,4.47,4.47,0,0,0,1.83-3.67C489,191,486.25,190,483.51,189.25Z"/><path class="cls-1" d="M490,181.29v2.15h6.18V199h2.3v-15.6h6.17v-2.15Z"/><path class="cls-1" d="M516,191.63a5.09,5.09,0,0,0,4.33-5c0-3.56-2.27-5.33-6.86-5.33h-6.8V199h2.3v-6.95h4.61l5.28,6.95h2.82Zm-2.46-1.69h-4.57v-6.5h4.42c3.07,0,4.59,1.07,4.59,3.18S516.2,189.94,513.49,189.94Z"/><path class="cls-1" d="M536.36,181.29v9.88c0,3.66-1.74,5.89-5,5.89a5.09,5.09,0,0,1-3.85-1.6A6,6,0,0,1,526,191v-9.75h-2.3v10.09a7.51,7.51,0,0,0,2.19,5.8,7.75,7.75,0,0,0,5.5,2,7.34,7.34,0,0,0,5.13-1.94,7.42,7.42,0,0,0,2.13-5.75V181.29Z"/><path class="cls-1" d="M556.05,194.68a7.44,7.44,0,0,1-10.42.48,6.75,6.75,0,0,1-1.88-5,7,7,0,0,1,1.77-5,6.26,6.26,0,0,1,4.84-1.9,7.26,7.26,0,0,1,5.27,2.17l1.49-1.43a9.38,9.38,0,0,0-13.3-.36,9.12,9.12,0,0,0-2.49,6.51,8.57,8.57,0,0,0,9.16,9.11,8.48,8.48,0,0,0,6.88-3.12Z"/><path class="cls-1" d="M558.11,181.29v2.15h6.15V199h2.31v-15.6h6.19v-2.15Z"/><path class="cls-1" d="M587.22,181.29v9.88c0,3.66-1.71,5.89-4.93,5.89a5.14,5.14,0,0,1-3.87-1.6,6,6,0,0,1-1.54-4.42v-9.75h-2.31v10.09a7.52,7.52,0,0,0,2.21,5.8,7.76,7.76,0,0,0,5.51,2,7.23,7.23,0,0,0,5.1-1.94,7.35,7.35,0,0,0,2.14-5.75V181.29Z"/><path class="cls-1" d="M602.5,191.63a5.1,5.1,0,0,0,4.34-5c0-3.56-2.28-5.33-6.88-5.33h-6.8V199h2.31v-6.95h4.63l5.26,6.95h2.82ZM600,189.94h-4.57v-6.5h4.42c3.07,0,4.59,1.07,4.59,3.18S602.75,189.94,600,189.94Z"/><path class="cls-1" d="M612.65,196.87v-5.79h9.76V189h-9.76v-5.52h10.48v-2.15H610.35V199h13v-2.17Z"/><path class="cls-1" d="M302.11,102.84l-3-1.43,2.54-2.19a33.55,33.55,0,0,0,11.94-26.37c0-21-14.08-31.26-43-31.26H214.27V168H269c18.23,0,48.81-4.76,48.81-36.65C317.85,117.2,312.7,107.89,302.11,102.84ZM265.69,64.3c15.75,0,22.17,4.38,22.17,15.09,0,4-1.92,13.2-19.75,13.2H238.82V71L223.24,64.3Zm.36,81H238.82v-30.9h28.73c12.08,0,24.43,1.81,24.43,15.26C292,143.38,279.52,145.26,266.05,145.26Z"/><rect class="cls-1" x="341.84" y="41.59" width="24.57" height="126.38"/><path class="cls-1" d="M435.29,41.59H396V168h36.48c25.57,0,44.79-6.08,57.13-18.06s18.75-27.66,18.75-46.81C508.37,80.13,498.88,41.59,435.29,41.59Zm-.38,103.67H420.59V71.54L403,64.3l18,0v0h13.94c31.83,0,48,13,48,38.8C482.88,131.09,466.74,145.26,434.91,145.26Z"/><path class="cls-1" d="M624,131.68a32,32,0,0,0-5-17.83c-6.69-9.77-16.61-13.71-29.89-18.2-4.71-1.6-9.38-2.85-13.9-4.05-12.88-3.43-24-6.39-24-15.77,0-6.62,3.78-14.52,21.8-14.52,12.49,0,23.29,4.83,33,14.77L622.32,60.3c-11.7-14.59-27.51-21.69-48.25-21.69-14.34,0-26.12,3.78-35,11.25s-13.42,16-13.42,26.34c0,22.27,16.77,30.47,34.88,36,4.42,1.49,8.53,2.61,12.5,3.7,7.53,2.07,14,3.85,19.08,7.21,4.08,2.72,6.42,6.66,6.42,10.81s-2.2,7.84-6,10.4c-3.63,2.62-9.06,3.91-16.54,3.91-15.63,0-29.77-7.74-39.15-21.35L519,141.74c10.47,18.6,31.4,29.22,57.74,29.22,13.68,0,24.76-3.74,33.89-11.44C619.49,152.18,624,142.82,624,131.68Z"/><path class="cls-1" d="M147.27,98.15V85.94H99a16.35,16.35,0,0,0-1.1-7.81c-1.37-3.24-3.18-7.09-4.5-9.81,2.73-3.16,5.34-7.95,4.88-13.57a27.26,27.26,0,0,0-3.62-11.52c3-5.72,8-18.19.86-29.78C89.66,3.91,80.08,1.16,74.9.38,67.77-.7,61.14.56,57.6,3.66a26.25,26.25,0,0,0-5.39,6.5C46.34,9,38.3,9.74,32.72,17.42a22.13,22.13,0,0,0-4,16.11A25.47,25.47,0,0,0,12.81,55.59,28,28,0,0,0,14.3,68.36C6.77,74.8-1.95,88,2,107a76.71,76.71,0,0,0,3.47,12.74C2.94,124-1,132.1.22,140.52c1,6.71,4.89,12,7.48,14.9-1,5.81-2.09,18.51,6.18,27.49,6.82,7.37,16.23,8.61,22.51,8.46,2.54,7,9.24,20,24.54,21.85a54.14,54.14,0,0,0,6.06.38c16.88,0,27.45-9.2,31.57-17.82a45.94,45.94,0,0,0,4.15-15.18h44.56V168.39H102.5c-.1-.69-.15-1.35-.27-2-1.52-9.6-3.86-15.09-6.34-18.1a66.62,66.62,0,0,0,2.51-10h48.87V126H98.82v-.09a53.7,53.7,0,0,0-6.34-18.65,21.52,21.52,0,0,0,2.27-9.13ZM23.1,56.47c.7-8.19,5.77-11.76,9.27-13.26,5.62,0,12.41,16,21.17,13.26C48.22,52,44.78,48.14,39.65,35.11c-.09-.24-2.46-6.28,1.41-11.62,3.39-4.67,8.56-3.52,10.71-2.78,5.58,3.13,3,23.47,10.08,20.5s17.58-9,14.84-15.34C73.6,26.22,67.08,38,62.11,33c-4.17-4.17-3.22-12-2-15.62a16.41,16.41,0,0,1,4.25-5.93c.63-.49,4.15-1.67,9.39-.78,3.32.57,9.37,2.38,12.94,8.19,5.84,9.53-2.33,21.49-2.4,21.59a5.23,5.23,0,0,0,.3,6.34A16.9,16.9,0,0,1,88,55.57c.33,4.18-3.94,7.49-4,7.49-2.63.44-5.68-5.6-5.68-5.6a27.46,27.46,0,0,0,4.14,12.08s3.67,7.35,5.88,12.59c.92,2.19.08,5.47-1.39,8.4a.2.2,0,0,1,0-.08c-3.44,3.74-8.61,4.6-12.76,1.87s-3.81-5.83-5.83-15.72a38.21,38.21,0,0,0-1-3.86h0S64.57,61.9,66,56.74c1-3.53,3.39-6.75,9.64-6.18-3.36-5.85-10.46-4.76-13.83-.24-3,4.09-2.92,10.21-1.89,13.16-7-3.83-12.06,1.94-12.06,1.94s6.33.14,10.12,4.16c1.9,2,3,4.53,3.85,12s5.6,15.51,11.48,17.51A27.25,27.25,0,0,0,84,100.53a16,16,0,0,1-1.81,4,5.23,5.23,0,0,0,0,5.8,43.79,43.79,0,0,1,6.3,17c.86,6.5-1.22,14-2.59,18-7.83-1.29-16.46-11.92-17.52-19.37A12.54,12.54,0,0,0,67.29,122h.14c4.87-.51,5.52-14.13,5.52-14.13S66.4,119.41,56.26,115c-5.75-2.59-7.18-12.48-7.75-18.36-.55-5.72,3.49-13,3.71-13.47-.38.23-6.64,4.09-8.59,7.29s-5,4.18-11.62,2.6S21.4,78.61,25.06,73.39a5.28,5.28,0,0,0,.28-.48,3.54,3.54,0,0,0,.27-.32c2.31-1.76,12.12,3.12,18-2.67-13.62,0-19.22-4.35-19.22-4.35C23.76,64.45,22.66,61.63,23.1,56.47ZM89.22,191.33c-3.1,6.51-12,13.47-27,11.64-11.62-1.43-15.81-13.78-16.77-17.24a73.64,73.64,0,0,0,6.1-8.35A114.87,114.87,0,0,1,38,180.94c-3.81.31-11.69.23-16.55-5C17,171.08,17,163.76,17.57,159.27c6.25,2.22,12.54,1.84,17.89-3.87-6.23.19-13.64-1.28-19.49-6.27-1.5-1.52-4.88-5.37-5.52-10-.56-3.9.89-8.21,2.49-11.49,2.65,5.58,10.86,10.21,17.36,14.31,7.26,4.59,17.35,5.56,17.77,11.75.94,13.28-17.51,17.91-17.51,17.91,6.46-.06,16.54-1.52,19.65-5.1,3.84-.38,10,1.44,14.8,5.08,5.92,4.5,9.08,14.44,9.08,14.44,1.62-6.49-2.87-14.91-5.73-19.7s-3-14.15-3-14.15-4.31,6.12-3.73,11.2c-1.51-1.81-5.34-2.34-8.23-2.49A22.57,22.57,0,0,0,54.59,152c-.17-2.62-3.37-5.73-7.6-8.7,6.49-1.85,10.89-12.4,4.87-14.67,0,2-3.37,10.67-17.28,7.47-.8-.4-1.56-.76-2.28-1.11a34.41,34.41,0,0,1-15.59-15.16c-.55-1.22-1-2.36-1.48-3.58-.38-.82-1.51-3.62-3.13-11.4-2.13-10.28.46-17.75,3.74-22.74-.48,8.42,7.79,15.35,13.45,17.93,6.3,2.85,13.2-1.59,13.62,2.15s2,4.72.57,8.89-10,6.16-19.64,1.15c-.29,9,21.22,9.6,24.52,5.73,1.16,3.74,9.33,3.74,13.07,6.75s4.87,16.34,9.31,19.94,13.78,7.6,18.65,13.34c.14.15.25.28.36.42A51.81,51.81,0,0,1,92,168C93.43,176.66,92.48,184.51,89.22,191.33Z"/><polygon class="cls-1" points="181.32 85.18 181.32 85.21 172.16 85.21 172.16 75.44 181.32 85.18"/><polygon class="cls-1" points="169.03 88.34 181.32 88.34 181.32 106.07 155.47 106.07 155.47 75.44 169.03 75.44 169.03 88.34"/><polygon class="cls-1" points="181.32 127.09 181.32 127.13 172.16 127.13 172.16 117.35 181.32 127.09"/><polygon class="cls-1" points="169.03 130.25 181.32 130.25 181.32 147.99 155.47 147.99 155.47 117.35 169.03 117.35 169.03 130.25"/><polygon class="cls-1" points="181.32 169.24 181.32 169.28 172.16 169.28 172.16 159.5 181.32 169.24"/><polygon class="cls-1" points="169.03 172.4 181.32 172.4 181.32 190.13 155.47 190.13 155.47 159.5 169.03 159.5 169.03 172.4"/><path class="cls-1" d="M142.7,29.61H127.82l-.61-1.85A2.3,2.3,0,0,0,125,26.18H113.83a2.3,2.3,0,0,0-2.19,1.6l-.59,1.83h-1.83a3.65,3.65,0,0,0-3.65,3.64V55.31A3.65,3.65,0,0,0,109.22,59H142.7a3.63,3.63,0,0,0,3.63-3.64V33.25A3.63,3.63,0,0,0,142.7,29.61Zm-34.56,5.83,2.23-3H141.5l1.65,3Z"/><polygon class="cls-1" points="172.06 38.9 172.06 68.3 159.85 68.3 159.85 51.11 149.43 51.11 149.43 38.9 172.06 38.9"/></g></g></svg>
