<?xml version="1.0" encoding="UTF-8" standalone="no"?>
<svg
   viewBox="0 0 779.06495 369.28157"
   version="1.1"
   id="svg86"
   sodipodi:docname="BIDS_logo_black.svg"
   xml:space="preserve"
   width="779.06494"
   height="369.28159"
   inkscape:version="1.2.2 (b0a8486541, 2022-12-01)"
   xmlns:inkscape="http://www.inkscape.org/namespaces/inkscape"
   xmlns:sodipodi="http://sodipodi.sourceforge.net/DTD/sodipodi-0.dtd"
   xmlns="http://www.w3.org/2000/svg"
   xmlns:svg="http://www.w3.org/2000/svg"
   xmlns:rdf="http://www.w3.org/1999/02/22-rdf-syntax-ns#"
   xmlns:cc="http://creativecommons.org/ns#"
   xmlns:dc="http://purl.org/dc/elements/1.1/"><sodipodi:namedview
     id="namedview88"
     pagecolor="#5fffff"
     bordercolor="#666666"
     borderopacity="1.0"
     inkscape:showpageshadow="2"
     inkscape:pageopacity="0.43921569"
     inkscape:pagecheckerboard="0"
     inkscape:deskcolor="#ffffff"
     showgrid="false"
     inkscape:zoom="1.072697"
     inkscape:cx="345.3911"
     inkscape:cy="200.8955"
     inkscape:current-layer="text2052" /><defs
     id="defs4"><style
       id="style2">.cls-1{fill:#1a1a1a;}</style><filter
       style="color-interpolation-filters:sRGB"
       inkscape:label="Drop Shadow"
       id="filter464"
       x="-0.071977102"
       y="-0.071983218"
       width="1.1449123"
       height="1.1449246"><feFlood
         flood-opacity="0.498039"
         flood-color="rgb(0,0,0)"
         result="flood"
         id="feFlood454" /><feComposite
         in="flood"
         in2="SourceGraphic"
         operator="in"
         result="composite1"
         id="feComposite456" /><feGaussianBlur
         in="composite1"
         stdDeviation="6.26037"
         result="blur"
         id="feGaussianBlur458" /><feOffset
         dx="0.2"
         dy="0.2"
         result="offset"
         id="feOffset460" /><feComposite
         in="SourceGraphic"
         in2="offset"
         operator="over"
         result="composite2"
         id="feComposite462" /></filter><filter
       style="color-interpolation-filters:sRGB"
       inkscape:label="Drop Shadow"
       id="filter1955"
       x="-0.031385553"
       y="-0.24522698"
       width="1.0631889"
       height="1.4937182"><feFlood
         flood-opacity="0.498039"
         flood-color="rgb(0,0,0)"
         result="flood"
         id="feFlood1945" /><feComposite
         in="flood"
         in2="SourceGraphic"
         operator="in"
         result="composite1"
         id="feComposite1947" /><feGaussianBlur
         in="composite1"
         stdDeviation="6.26037"
         result="blur"
         id="feGaussianBlur1949" /><feOffset
         dx="0.2"
         dy="0.2"
         result="offset"
         id="feOffset1951" /><feComposite
         in="SourceGraphic"
         in2="offset"
         operator="over"
         result="composite2"
         id="feComposite1953" /></filter></defs><title
     id="title6">Ресурс 2</title><g
     id="g1877"
     inkscape:label="BIDS Expanded Text"
     style="display:none"
     transform="translate(22.364651,106.22763)"><path
       class="cls-1"
       d="m 222,189.76 a 4.05,4.05 0 0 0 2.51,-4 c 0,-2.77 -1.73,-4.42 -6.27,-4.42 H 211 V 199 h 7.05 c 4.44,0 7,-1.6 7,-5.08 A 3.9,3.9 0 0 0 222,189.76 Z m -8.61,-6.32 H 218 c 3,0 4.12,0.84 4.12,2.74 0,1.72 -1.47,2.75 -3.74,2.75 h -5 z m 4.7,13.43 h -4.7 V 191 h 4.95 q 4.43,0 4.42,2.82 c -0.05,2.12 -1.5,3.05 -4.76,3.05 z"
       id="path8" /><path
       class="cls-1"
       d="m 243,199 -5.62,-7.34 a 5.1,5.1 0 0 0 4.34,-5 q 0,-5.34 -6.88,-5.33 h -6.78 V 199 h 2.31 v -6.95 H 235 l 5.27,6.95 h 2.8 z m -8.08,-9 h -4.55 v -6.5 h 4.4 c 3.06,0 4.59,1.07 4.59,3.18 0,2.11 -1.7,3.26 -4.42,3.26 z"
       id="path10" /><path
       class="cls-1"
       d="m 252.58,181.25 h -1.83 L 243,199 v 0.07 h 2.34 l 2,-4.49 H 256 l 2,4.49 h 2.4 z m -4.44,11.28 3.47,-8.08 3.5,8.08 z"
       id="path12" /><path
       class="cls-1"
       d="M 262.26,181.29 V 199 h 2.3 v -17.71 z"
       id="path14" /><path
       class="cls-1"
       d="m 281,181.29 v 13.58 l -10.86,-13.58 h -1.81 V 199 h 2.23 V 185.5 L 281.4,199 h 1.81 v -17.71 z"
       id="path16" /><path
       class="cls-1"
       d="M 294.55,181.29 V 199 h 2.3 v -17.71 z"
       id="path18" /><path
       class="cls-1"
       d="m 316,181.29 -6.52,8.93 -6.74,-8.93 h -2.13 V 199 h 2.3 v -13.73 l 6.25,8.17 h 0.55 l 6.06,-8.17 V 199 h 2.3 v -17.71 z"
       id="path20" /><path
       class="cls-1"
       d="m 329.58,181.25 h -1.83 L 320,199 h 2.36 l 2,-4.49 H 333 l 2,4.49 h 2.4 z m -4.44,11.28 3.47,-8.08 3.5,8.08 z"
       id="path22" /><path
       class="cls-1"
       d="m 346.75,190 v 2.11 h 4.89 v 3.47 a 7,7 0 0 1 -4.59,1.52 6.93,6.93 0 0 1 -5,-1.88 6.63,6.63 0 0 1 -2,-5 6.89,6.89 0 0 1 1.88,-5 7.43,7.43 0 0 1 10,0.08 l 1.44,-1.51 q -2.16,-2.69 -6.68,-2.68 a 9.24,9.24 0 0 0 -6.42,15.7 9.31,9.31 0 0 0 6.7,2.51 9.73,9.73 0 0 0 6.84,-2.69 V 190 Z"
       id="path24" /><path
       class="cls-1"
       d="M 356.63,181.29 V 199 h 2.31 v -17.71 z"
       id="path26" /><path
       class="cls-1"
       d="m 375.36,181.29 v 13.58 L 364.5,181.29 h -1.81 V 199 h 2.23 V 185.5 L 375.8,199 h 1.79 v -17.71 z"
       id="path28" /><path
       class="cls-1"
       d="m 389.44,190 v 2.11 h 4.89 v 3.47 a 7.65,7.65 0 0 1 -9.6,-0.36 6.66,6.66 0 0 1 -2,-5 6.85,6.85 0 0 1 1.89,-5 7.41,7.41 0 0 1 10,0.08 l 1.45,-1.51 q -2.17,-2.69 -6.69,-2.68 a 9.24,9.24 0 0 0 -6.42,15.7 9.31,9.31 0 0 0 6.7,2.51 9.73,9.73 0 0 0 6.84,-2.69 V 190 Z"
       id="path30" /><path
       class="cls-1"
       d="m 412.39,181.29 h -5.46 V 199 h 5.22 c 3.31,0 5.81,-0.87 7.5,-2.57 a 8.82,8.82 0 0 0 2.54,-6.55 c 0,-4.61 -2.6,-8.59 -9.8,-8.59 z m -0.09,15.58 h -3.07 v -13.43 h 3.13 c 5.18,0 7.44,2.5 7.44,6.48 0,4.25 -2.43,6.95 -7.5,6.95 z"
       id="path32" /><path
       class="cls-1"
       d="M 431.81,181.25 H 430 L 422.2,199 h 2.35 l 2,-4.49 h 8.69 l 2,4.49 h 2.4 z m -4.44,11.28 3.46,-8.08 3.51,8.08 z"
       id="path34" /><path
       class="cls-1"
       d="m 437.2,181.29 v 2.15 h 6.15 V 199 h 2.31 v -15.6 h 6.19 v -2.15 z"
       id="path36" /><path
       class="cls-1"
       d="m 459.05,181.25 h -1.83 L 449.45,199 h 2.34 l 2,-4.49 h 8.69 l 2,4.49 h 2.4 z m -4.44,11.28 3.47,-8.08 3.5,8.08 z"
       id="path38" /><path
       class="cls-1"
       d="m 483.51,189.25 c -2.72,-0.74 -5.47,-1.16 -5.47,-3.37 a 2.13,2.13 0 0 1 1.3,-2 6.05,6.05 0 0 1 2.84,-0.63 6.79,6.79 0 0 1 5,1.89 l 1.5,-1.49 q -2,-2.6 -6.46,-2.59 a 7.49,7.49 0 0 0 -4.74,1.39 4.28,4.28 0 0 0 -1.83,3.49 c 0,6.53 10.95,4 10.95,8.38 0,1.69 -1.69,2.76 -3.82,2.76 a 7.6,7.6 0 0 1 -6,-2.86 l -1.5,1.62 a 7.46,7.46 0 0 0 3,2.4 9.23,9.23 0 0 0 4.29,1 7.26,7.26 0 0 0 4.61,-1.45 4.47,4.47 0 0 0 1.83,-3.67 C 489,191 486.25,190 483.51,189.25 Z"
       id="path40" /><path
       class="cls-1"
       d="m 490,181.29 v 2.15 h 6.18 V 199 h 2.3 v -15.6 h 6.17 v -2.15 z"
       id="path42" /><path
       class="cls-1"
       d="m 516,191.63 a 5.09,5.09 0 0 0 4.33,-5 c 0,-3.56 -2.27,-5.33 -6.86,-5.33 h -6.8 V 199 h 2.3 v -6.95 h 4.61 l 5.28,6.95 h 2.82 z m -2.46,-1.69 h -4.57 v -6.5 h 4.42 c 3.07,0 4.59,1.07 4.59,3.18 0,2.11 -1.78,3.32 -4.49,3.32 z"
       id="path44" /><path
       class="cls-1"
       d="m 536.36,181.29 v 9.88 c 0,3.66 -1.74,5.89 -5,5.89 a 5.09,5.09 0 0 1 -3.85,-1.6 A 6,6 0 0 1 526,191 v -9.75 h -2.3 v 10.09 a 7.51,7.51 0 0 0 2.19,5.8 7.75,7.75 0 0 0 5.5,2 7.34,7.34 0 0 0 5.13,-1.94 7.42,7.42 0 0 0 2.13,-5.75 v -10.16 z"
       id="path46" /><path
       class="cls-1"
       d="m 556.05,194.68 a 7.44,7.44 0 0 1 -10.42,0.48 6.75,6.75 0 0 1 -1.88,-5 7,7 0 0 1 1.77,-5 6.26,6.26 0 0 1 4.84,-1.9 7.26,7.26 0 0 1 5.27,2.17 l 1.49,-1.43 a 9.38,9.38 0 0 0 -13.3,-0.36 9.12,9.12 0 0 0 -2.49,6.51 8.57,8.57 0 0 0 9.16,9.11 8.48,8.48 0 0 0 6.88,-3.12 z"
       id="path48" /><path
       class="cls-1"
       d="m 558.11,181.29 v 2.15 h 6.15 V 199 h 2.31 v -15.6 h 6.19 v -2.15 z"
       id="path50" /><path
       class="cls-1"
       d="m 587.22,181.29 v 9.88 c 0,3.66 -1.71,5.89 -4.93,5.89 a 5.14,5.14 0 0 1 -3.87,-1.6 6,6 0 0 1 -1.54,-4.42 v -9.75 h -2.31 v 10.09 a 7.52,7.52 0 0 0 2.21,5.8 7.76,7.76 0 0 0 5.51,2 7.23,7.23 0 0 0 5.1,-1.94 7.35,7.35 0 0 0 2.14,-5.75 v -10.2 z"
       id="path52" /><path
       class="cls-1"
       d="m 602.5,191.63 a 5.1,5.1 0 0 0 4.34,-5 c 0,-3.56 -2.28,-5.33 -6.88,-5.33 h -6.8 V 199 h 2.31 v -6.95 h 4.63 l 5.26,6.95 h 2.82 z m -2.5,-1.69 h -4.57 v -6.5 h 4.42 c 3.07,0 4.59,1.07 4.59,3.18 0,2.11 -1.69,3.32 -4.44,3.32 z"
       id="path54" /><path
       class="cls-1"
       d="m 612.65,196.87 v -5.79 h 9.76 V 189 h -9.76 v -5.52 h 10.48 v -2.15 H 610.35 V 199 h 13 v -2.17 z"
       id="path56" /></g><metadata
     id="metadata371"><rdf:RDF><cc:Work
         rdf:about=""><dc:title>Ресурс 2</dc:title></cc:Work></rdf:RDF></metadata><style
     type="text/css"
     id="style416"><![CDATA[
	.st0{fill:#01A601;}
]]></style><g
     id="g2054"
     inkscape:label="outline"
     transform="translate(22.35601,7.2734375)"><g
       aria-label="COMPLIANT"
       id="text2052"
       style="font-size:85.3333px;line-height:125%;font-family:'Nanum Pen';-inkscape-font-specification:'Nanum Pen, Normal';letter-spacing:0px;word-spacing:0px;fill:none;stroke:#000000;stroke-width:1px"
       inkscape:label="Compliant Text"><path
         id="path2080"
         style="font-weight:bold;font-family:'Gillius ADF No2';-inkscape-font-specification:'Gillius ADF No2, Bold';fill:#ffffff;fill-opacity:1;stroke:none"
         d="m 630.0293,-7.2734375 c -34.84143,0 -66.66732,14.2044196 -89.5625,37.0996095 -22.8952,22.895187 -37.09961,54.721079 -37.09961,89.562498 0,7.32363 0.71062,14.46801 1.92773,21.41992 -15.5897,-13.76029 -39.14827,-22.5625 -69.99609,-22.5625 h -39.29102 c -5.58943,0.27689 -10.87045,2.64516 -14.79492,6.63477 -3.92447,-3.98961 -9.20549,-6.35788 -14.79492,-6.63477 h -24.57031 c -9.75897,0.34669 -18.15733,7.00222 -20.72461,16.42383 -1.57729,-1.58551 -3.24488,-3.08022 -5.0625,-4.40234 -12.92491,-9.40147 -28.36405,-12.02149 -45.46094,-12.02149 H 214.2793 c -9.78825,0.34844 -18.20349,7.04277 -20.74414,16.50196 -1.51258,-10.77936 -10.58601,-18.89187 -21.4668,-19.19336 h -10.12305 c -4.58122,-5.21697 -11.01943,-8.74016 -17.93945,-9.14453 l 3.21094,9.74023 c -0.10633,0.0279 -0.21245,0.0565 -0.31836,0.0859 -4.22487,-7.99541 -13.05781,-13.50304 -22.14649,-13.39844 l 0.25586,-0.002 h -9.4414 c -0.38975,-0.7088 -0.61407,-1.41199 -1.05079,-2.1211 -0.001,-0.002 -8.7e-4,-0.004 -0.002,-0.006 -10.5278,-17.117122 -27.456886,-22.092475 -36.265623,-23.421871 -0.0013,-1.96e-4 -0.0026,1.97e-4 -0.0039,0 C 75.321424,76.844602 72.40755,76.632777 69.5,76.658203 c -8.721115,0.07627 -17.815477,1.516654 -26.560547,9.164063 -0.49168,0.429025 -0.891361,0.951796 -1.365234,1.40039 -9.515673,1.595575 -19.815349,6.31497 -26.884766,16.044924 l -0.0078,0.01 c -3.598861,4.95879 -6.0107587,10.69845 -7.3164066,16.6836 -9.4817676,8.27078 -15.8312597,20.17937 -16.7402344,32.7539 -0.2670412,2.6477 -0.274619,5.30827 -0.1191406,7.96485 -8.5010154,11.94486 -14.5247064,29.28733 -10.3535154,49.63281 0.401687,2.16228 0.914182,4.30287 1.458984,6.43359 -2.757706,6.55947 -5.022527,15.08085 -3.451172,25.92579 0.0045,0.03 0.0091,0.0599 0.01367,0.0898 1.108834,7.44027 3.701335,13.21294 6.492188,17.79883 -0.413136,10.07821 1.384124,23.99019 12.8203121,36.4082 0.011703,0.013 0.023422,0.026 0.035156,0.0391 7.5703472,8.18086 16.4324829,12.15099 24.4531249,14.04102 1.502196,2.30454 3.183991,4.6479 5.306641,7.01562 6.64851,7.41615 17.538274,14.6205 30.982422,16.2461 l 0.03125,0.004 c 2.838266,0.339 5.696313,0.51995 8.554687,0.53907 0.04948,1.6e-4 0.09896,1.6e-4 0.148438,0 24.982429,0 43.832413,-14.06515 51.689453,-30.50391 0.0216,-0.0455 0.0431,-0.0911 0.0644,-0.13672 0.36238,-0.7717 0.65334,-1.57458 0.98633,-2.35937 h 18.05078 c 4.05043,5.80331 10.61497,9.33962 17.68946,9.52929 h 25.8496 c 12.31484,-10e-4 22.29772,-9.98399 22.29883,-22.29883 v -2.68554 c 3.25572,1.82864 6.9185,2.81049 10.65235,2.85547 h 22.46093 c -2.3061,6.48718 -3.34765,13.29461 -3.34765,19.90625 0,12.90282 3.91939,26.52043 13.60351,36.91015 9.68412,10.38973 24.43233,15.9375 39.67188,15.9375 9.50805,0 18.77405,-2.05021 27.59961,-6.85547 7.71127,4.3355 16.83358,6.85547 26.24414,6.85547 8.99156,0 17.74709,-2.26947 25.28906,-6.23242 3.73705,3.06473 8.36858,4.83248 13.19727,5.03711 h 9.64257 c 7.92792,-0.0111 15.25392,-4.23033 19.24219,-11.08203 3.98827,6.8517 11.31427,11.07091 19.24219,11.08203 h 9.30273 c 2.02588,-0.25399 4.00728,-0.78499 5.88868,-1.57812 1.88077,0.79295 3.8615,1.32395 5.88671,1.57812 h 9.38672 c 8.28137,-0.10539 15.82226,-4.79147 19.58399,-12.16992 3.76173,7.37845 11.30262,12.06452 19.58398,12.16992 h 39.93555 c 1.13073,-0.21125 2.24343,-0.50966 3.32812,-0.89258 1.0847,0.38292 2.19739,0.68133 3.32813,0.89258 h 9.64258 c 1.06327,-0.20354 2.11031,-0.48422 3.13281,-0.83984 1.09442,0.3663 2.21563,0.64709 3.35352,0.83984 h 11.17773 c 7.76692,-0.17957 14.88062,-4.3883 18.77734,-11.10938 3.89528,6.71874 11.00541,10.92711 18.76953,11.10938 h 11.26368 c 1.49512,-0.0336 2.98308,-0.21743 4.4414,-0.54883 0.67257,0.21522 1.35498,0.39837 2.04492,0.54883 h 9.64258 c 5.13611,-0.24394 10.03013,-2.25522 13.85352,-5.69336 3.83004,3.44354 8.73395,5.4552 13.8789,5.69336 h 9.89844 c 5.53221,-0.27433 10.76435,-2.59764 14.67774,-6.51758 3.91339,3.91994 9.14552,6.24324 14.67773,6.51758 h 9.72852 c 12.31484,-10e-4 22.29772,-9.98399 22.29883,-22.29883 v -28.7832 c 12.21644,-0.11021 22.0701,-10.02919 22.0996,-22.24609 v -8.02149 c -10e-4,-12.31484 -9.98398,-22.29771 -22.29882,-22.29883 h -54.09961 c -1.20439,0.21869 -2.38873,0.53617 -3.54102,0.94922 -1.15292,-0.41316 -2.33792,-0.73064 -3.54297,-0.94922 h -9.21484 c -5.31213,0.26021 -10.35637,2.41035 -14.22266,6.0625 -3.03026,-2.65005 -6.72132,-4.43045 -10.68164,-5.15234 2.20958,-4.08558 3.95554,-8.40294 5.16406,-12.87891 29.21654,-3.28994 55.60514,-16.50943 75.33985,-36.24414 22.89571,-22.89573 37.09765,-54.72207 37.09765,-89.5625 0,-14.42863 -2.42962,-28.380394 -6.91406,-41.359373 -2.26668,-5.666899 -6.75693,-10.157146 -12.42383,-12.423828 0.47408,-0.530643 0.91983,-1.07188 1.39649,-1.601563 l 0.002,-0.002 5.59961,-6.220703 c 12.9108,-14.349717 2.73067,-37.211522 -16.57226,-37.216797 h -27.78321 c -1.02486,0.117635 -2.04031,0.306239 -3.03906,0.564453 C 695.68606,14.205872 691.20333,8.2981699 684.88281,5.1933594 668.27279,-2.7889276 649.60377,-7.2734375 630.0293,-7.2734375 Z"
         sodipodi:nodetypes="ssscscccccssccccccccccscscscccccccccccccccsccccccccccccccssscsccccccccccccccccccccccccccccccccccccccccccssccsccccccs" /></g></g><g
     id="g1986"
     style="display:inline"
     inkscape:label="BIDS Compliant"
     transform="translate(22.35601,7.2734375)"><path
       class="cls-1"
       d="m 302.11864,201.79419 -3,-1.43 2.54,-2.19 a 33.55,33.55 0 0 0 11.94,-26.37 c 0,-21 -14.08,-31.26 -43,-31.26 h -56.32 v 126.41 h 54.73 c 18.23,0 48.81,-4.76 48.81,-36.65 0.04,-14.15 -5.11,-23.46 -15.7,-28.51 z m -36.42,-38.54 c 15.75,0 22.17,4.38 22.17,15.09 0,4 -1.92,13.2 -19.75,13.2 h -29.29 v -21.59 l -15.58,-6.7 z m 0.36,81 h -27.23 v -30.9 h 28.73 c 12.08,0 24.43,1.81 24.43,15.26 0.02,13.72 -12.46,15.6 -25.93,15.6 z"
       id="path58" /><rect
       class="cls-1"
       x="341.84863"
       y="140.54419"
       width="24.57"
       height="126.38"
       id="rect60" /><path
       class="cls-1"
       d="m 435.29864,140.54419 h -39.29 v 126.41 h 36.48 c 25.57,0 44.79,-6.08 57.13,-18.06 12.34,-11.98 18.75,-27.66 18.75,-46.81 0.01,-23 -9.48,-61.54 -73.07,-61.54 z m -0.38,103.67 h -14.32 v -73.72 l -17.59,-7.24 h 18 v 0 h 13.94 c 31.83,0 48,13 48,38.8 -0.06,27.99 -16.2,42.16 -48.03,42.16 z"
       id="path62" /><path
       class="cls-1"
       d="m 624.00864,230.63419 a 32,32 0 0 0 -5,-17.83 c -6.69,-9.77 -16.61,-13.71 -29.89,-18.2 -4.71,-1.6 -9.38,-2.85 -13.9,-4.05 -12.88,-3.43 -24,-6.39 -24,-15.77 0,-6.62 3.78,-14.52 21.8,-14.52 12.49,0 23.29,4.83 33,14.77 l 16.31,-15.78 c -11.7,-14.59 -27.51,-21.69 -48.25,-21.69 -14.34,0 -26.12,3.78 -35,11.25 -8.88,7.47 -13.42,16 -13.42,26.34 0,22.27 16.77,30.47 34.88,36 4.42,1.49 8.53,2.61 12.5,3.7 7.53,2.07 14,3.85 19.08,7.21 4.08,2.72 6.42,6.66 6.42,10.81 0,4.15 -2.2,7.84 -6,10.4 -3.63,2.62 -9.06,3.91 -16.54,3.91 -15.63,0 -29.77,-7.74 -39.15,-21.35 l -17.84,14.86 c 10.47,18.6 31.4,29.22 57.74,29.22 13.68,0 24.76,-3.74 33.89,-11.44 8.86,-7.34 13.37,-16.7 13.37,-27.84 z"
       id="path64" /><path
       class="cls-1"
       d="m 147.27864,197.10419 v -12.21 H 99.008642 a 16.35,16.35 0 0 0 -1.1,-7.81 c -1.37,-3.24 -3.18,-7.09 -4.5,-9.81 2.73,-3.16 5.34,-7.95 4.88,-13.57 a 27.26,27.26 0 0 0 -3.62,-11.52 c 3,-5.72 7.999998,-18.19 0.86,-29.78 -5.86,-9.54 -15.44,-12.29 -20.62,-13.070003 -7.13,-1.08 -13.76,0.18 -17.3,3.280003 a 26.25,26.25 0 0 0 -5.39,6.5 c -5.87,-1.16 -13.91,-0.42 -19.49,7.26 a 22.13,22.13 0 0 0 -4,16.11 25.47,25.47 0 0 0 -15.91,22.06 28,28 0 0 0 1.49,12.77 c -7.5300003,6.44 -16.2500003,19.64 -12.3000003,38.64 a 76.71,76.71 0 0 0 3.47,12.74 c -2.53,4.26 -6.46999997,12.36 -5.24999997,20.78 0.99999997,6.71 4.88999997,12 7.47999997,14.9 -1,5.81 -2.09,18.51 6.1800003,27.49 6.82,7.37 16.23,8.61 22.51,8.46 2.54,7 9.24,20 24.54,21.85 a 54.14,54.14 0 0 0 6.06,0.38 c 16.88,0 27.45,-9.2 31.57,-17.82 a 45.94,45.94 0 0 0 4.149998,-15.18 h 44.56 v -12.21 h -44.77 c -0.1,-0.69 -0.15,-1.35 -0.27,-2 -1.52,-9.6 -3.859998,-15.09 -6.339998,-18.1 a 66.62,66.62 0 0 0 2.51,-10 h 48.869998 v -12.29 H 98.828642 v -0.09 a 53.7,53.7 0 0 0 -6.34,-18.65 21.52,21.52 0 0 0 2.27,-9.13 z m -124.169998,-41.68 c 0.7,-8.19 5.77,-11.76 9.27,-13.26 5.62,0 12.41,16 21.17,13.26 -5.32,-4.47 -8.76,-8.33 -13.89,-21.36 -0.09,-0.24 -2.46,-6.28 1.41,-11.62 3.39,-4.67 8.56,-3.52 10.71,-2.78 5.58,3.13 3,23.47 10.08,20.5 7.08,-2.97 17.58,-9 14.84,-15.34 -3.09,0.35 -9.61,12.13 -14.58,7.13 -4.17,-4.17 -3.22,-12 -2,-15.62 a 16.41,16.41 0 0 1 4.25,-5.93 c 0.63,-0.49 4.15,-1.67 9.39,-0.78 3.32,0.57 9.37,2.38 12.94,8.19 5.84,9.53 -2.33,21.49 -2.4,21.59 a 5.23,5.23 0 0 0 0.3,6.34 16.9,16.9 0 0 1 3.41,8.78 c 0.33,4.18 -3.94,7.49 -4,7.49 -2.63,0.44 -5.68,-5.6 -5.68,-5.6 a 27.46,27.46 0 0 0 4.14,12.08 c 0,0 3.67,7.35 5.88,12.59 0.92,2.19 0.08,5.47 -1.39,8.4 a 0.2,0.2 0 0 1 0,-0.08 c -3.44,3.74 -8.61,4.6 -12.76,1.87 -4.15,-2.73 -3.81,-5.83 -5.83,-15.72 a 38.21,38.21 0 0 0 -1,-3.86 v 0 c 0,0 -2.79,-10.84 -1.36,-16 1,-3.53 3.39,-6.75 9.64,-6.18 -3.36,-5.85 -10.46,-4.76 -13.83,-0.24 -3,4.09 -2.92,10.21 -1.89,13.16 -7,-3.83 -12.06,1.94 -12.06,1.94 0,0 6.33,0.14 10.12,4.16 1.9,2 3,4.53 3.85,12 0.85,7.47 5.6,15.51 11.48,17.51 a 27.25,27.25 0 0 0 10.69,1.44 16,16 0 0 1 -1.81,4 5.23,5.23 0 0 0 0,5.8 43.79,43.79 0 0 1 6.3,17 c 0.86,6.5 -1.22,14 -2.59,18 -7.83,-1.29 -16.46,-11.92 -17.52,-19.37 a 12.54,12.54 0 0 0 -1.09,-3.96 h 0.14 c 4.87,-0.51 5.52,-14.13 5.52,-14.13 0,0 -6.55,11.54 -16.69,7.13 -5.75,-2.59 -7.18,-12.48 -7.75,-18.36 -0.55,-5.72 3.49,-13 3.71,-13.47 -0.38,0.23 -6.64,4.09 -8.59,7.29 -1.95,3.2 -5,4.18 -11.62,2.6 -6.62,-1.58 -10.61,-14.45 -6.95,-19.67 a 5.28,5.28 0 0 0 0.28,-0.48 3.54,3.54 0 0 0 0.27,-0.32 c 2.31,-1.76 12.12,3.12 18,-2.67 -13.62,0 -19.22,-4.35 -19.22,-4.35 -0.63,-1.12 -1.73,-3.94 -1.29,-9.1 z m 66.12,134.86 c -3.1,6.51 -12,13.47 -27,11.64 -11.62,-1.43 -15.81,-13.78 -16.77,-17.24 a 73.64,73.64 0 0 0 6.1,-8.35 114.87,114.87 0 0 1 -13.55,3.56 c -3.81,0.31 -11.69,0.23 -16.55,-5 -4.45,-4.86 -4.45,-12.18 -3.88,-16.67 6.25,2.22 12.54,1.84 17.89,-3.87 -6.23,0.19 -13.64,-1.28 -19.49,-6.27 -1.5,-1.52 -4.88,-5.37 -5.52,-10 -0.5600003,-3.9 0.89,-8.21 2.49,-11.49 2.65,5.58 10.86,10.21 17.36,14.31 7.26,4.59 17.35,5.56 17.77,11.75 0.94,13.28 -17.51,17.91 -17.51,17.91 6.46,-0.06 16.54,-1.52 19.65,-5.1 3.84,-0.38 10,1.44 14.8,5.08 5.92,4.5 9.08,14.44 9.08,14.44 1.62,-6.49 -2.87,-14.91 -5.73,-19.7 -2.86,-4.79 -3,-14.15 -3,-14.15 0,0 -4.31,6.12 -3.73,11.2 -1.51,-1.81 -5.34,-2.34 -8.23,-2.49 a 22.57,22.57 0 0 0 1.19,-8.89 c -0.17,-2.62 -3.37,-5.73 -7.6,-8.7 6.49,-1.85 10.89,-12.4 4.87,-14.67 0,2 -3.37,10.67 -17.28,7.47 -0.8,-0.4 -1.56,-0.76 -2.28,-1.11 a 34.41,34.41 0 0 1 -15.59,-15.16 c -0.55,-1.22 -1,-2.36 -1.48,-3.58 -0.38,-0.82 -1.51,-3.62 -3.13,-11.4 -2.1300003,-10.28 0.46,-17.75 3.74,-22.74 -0.48,8.42 7.79,15.35 13.45,17.93 6.3,2.85 13.2,-1.59 13.62,2.15 0.42,3.74 2,4.72 0.57,8.89 -1.43,4.17 -10,6.16 -19.64,1.15 -0.29,9 21.22,9.6 24.52,5.73 1.16,3.74 9.33,3.74 13.07,6.75 3.74,3.01 4.87,16.34 9.31,19.94 4.44,3.6 13.78,7.6 18.65,13.34 0.14,0.15 0.25,0.28 0.36,0.42 a 51.81,51.81 0 0 1 2.25,9.59 c 1.43,8.66 0.48,16.51 -2.78,23.33 z"
       id="path66" /><polygon
       class="cls-1"
       points="172.16,85.21 172.16,75.44 181.32,85.18 181.32,85.21 "
       id="polygon68"
       transform="translate(0.00864173,98.954187)" /><polygon
       class="cls-1"
       points="169.03,88.34 181.32,88.34 181.32,106.07 155.47,106.07 155.47,75.44 169.03,75.44 "
       id="polygon70"
       transform="translate(0.00864173,98.954187)" /><polygon
       class="cls-1"
       points="172.16,127.13 172.16,117.35 181.32,127.09 181.32,127.13 "
       id="polygon72"
       transform="translate(0.00864173,98.954187)" /><polygon
       class="cls-1"
       points="169.03,130.25 181.32,130.25 181.32,147.99 155.47,147.99 155.47,117.35 169.03,117.35 "
       id="polygon74"
       transform="translate(0.00864173,98.954187)" /><polygon
       class="cls-1"
       points="172.16,169.28 172.16,159.5 181.32,169.24 181.32,169.28 "
       id="polygon76"
       transform="translate(0.00864173,98.954187)" /><polygon
       class="cls-1"
       points="169.03,172.4 181.32,172.4 181.32,190.13 155.47,190.13 155.47,159.5 169.03,159.5 "
       id="polygon78"
       transform="translate(0.00864173,98.954187)" /><path
       class="cls-1"
       d="m 142.70864,128.56419 h -14.88 l -0.61,-1.85 a 2.3,2.3 0 0 0 -2.21,-1.58 h -11.17 a 2.3,2.3 0 0 0 -2.19,1.6 l -0.59,1.83 h -1.83 a 3.65,3.65 0 0 0 -3.65,3.64 v 22.06 a 3.65,3.65 0 0 0 3.65,3.69 h 33.48 a 3.63,3.63 0 0 0 3.63,-3.64 v -22.11 a 3.63,3.63 0 0 0 -3.63,-3.64 z m -34.56,5.83 2.23,-3 h 31.13 l 1.65,3 z"
       id="path80" /><polygon
       class="cls-1"
       points="172.06,38.9 172.06,68.3 159.85,68.3 159.85,51.11 149.43,51.11 149.43,38.9 "
       id="polygon82"
       transform="translate(0.00864173,98.954187)" /><path
       class="st0"
       d="m 630.02949,15.024887 c 16.18827,0 31.50774,3.68801 45.19596,10.266162 -5.60295,4.432714 -10.79809,8.688119 -15.63861,12.783947 -9.22005,-3.351132 -19.16707,-5.17741 -29.53962,-5.17741 -23.88346,0 -45.51511,9.681048 -61.15372,25.337393 -15.65635,15.656346 -25.3374,37.270262 -25.3374,61.153731 0,23.88346 9.68105,45.49738 25.3374,61.15372 15.65634,15.65635 37.27026,25.3374 61.15372,25.3374 23.88347,0 45.51512,-9.68105 61.15373,-25.3374 15.65635,-15.65634 25.3374,-37.27026 25.3374,-61.15372 0,-5.67388 -0.54966,-11.24137 -1.59578,-16.61382 4.48591,-5.85118 9.0782,-11.684632 13.77687,-17.464893 3.68802,10.673977 5.69161,22.145843 5.69161,34.078713 0,28.81264 -11.68464,54.91246 -30.56799,73.79582 -18.88337,18.88337 -44.98319,30.568 -73.79584,30.568 -28.81264,0 -54.91246,-11.68463 -73.79582,-30.568 -18.9011,-18.88336 -30.58573,-44.98318 -30.58573,-73.79582 0,-28.812647 11.68463,-54.912469 30.568,-73.79583 18.88336,-18.883363 44.98318,-30.567993 73.79582,-30.567993 z m -48.61801,87.218083 25.46151,-0.33689 1.8972,0.49646 c 5.14195,2.96106 9.98248,6.34765 14.50384,10.17752 3.26248,2.76601 6.38311,5.78026 9.34417,9.04273 9.13139,-14.69888 18.86563,-28.192059 29.14953,-40.603661 11.2591,-13.599566 23.20969,-25.940242 35.76314,-37.199335 l 2.48232,-0.957466 h 27.78425 l -5.60295,6.22353 c -17.21666,19.131594 -32.83754,38.9015 -46.95131,59.291982 -14.11376,20.40822 -26.73813,41.47248 -37.96177,63.15732 l -3.49298,6.73772 -3.20928,-6.86184 c -5.92211,-12.71302 -13.01445,-24.37993 -21.47207,-34.80567 -8.45762,-10.42575 -18.29824,-19.68125 -29.77011,-27.55375 z"
       id="path418"
       style="fill:#ff0000;stroke-width:1.77309;filter:url(#filter464)"
       inkscape:label="CheckMark" /><text
       xml:space="preserve"
       style="font-size:85.3333px;line-height:125%;font-family:'Nanum Pen';-inkscape-font-specification:'Nanum Pen, Normal';letter-spacing:0px;word-spacing:0px;writing-mode:lr-tb;fill:none;stroke:#000000;stroke-width:1px;stroke-linecap:butt;stroke-linejoin:miter;stroke-opacity:1;filter:url(#filter1955)"
       x="252.27783"
       y="338.51392"
       id="text520"
       inkscape:label="Compliant Text"><tspan
         sodipodi:role="line"
         id="tspan518"
         x="252.27783"
         y="338.51392"
         style="font-style:normal;font-variant:normal;font-weight:bold;font-stretch:normal;font-size:85.3333px;font-family:'Gillius ADF No2';-inkscape-font-specification:'Gillius ADF No2, Bold';font-variant-ligatures:normal;font-variant-caps:normal;font-variant-numeric:normal;font-variant-east-asian:normal;fill:#ff0000;stroke:none">COMPLIANT</tspan></text></g></svg>
