<?xml version="1.0" encoding="UTF-8" standalone="no"?>
<svg
   viewBox="0 0 779.06495 369.28157"
   version="1.1"
   id="svg86"
   sodipodi:docname="BIDS_compliant_small.svg"
   xml:space="preserve"
   width="779.06494"
   height="369.28159"
   inkscape:version="1.1.2 (0a00cf5339, 2022-02-04)"
   xmlns:inkscape="http://www.inkscape.org/namespaces/inkscape"
   xmlns:sodipodi="http://sodipodi.sourceforge.net/DTD/sodipodi-0.dtd"
   xmlns="http://www.w3.org/2000/svg"
   xmlns:svg="http://www.w3.org/2000/svg"
   xmlns:rdf="http://www.w3.org/1999/02/22-rdf-syntax-ns#"
   xmlns:cc="http://creativecommons.org/ns#"
   xmlns:dc="http://purl.org/dc/elements/1.1/"><sodipodi:namedview
     id="namedview88"
     pagecolor="#5fffff"
     bordercolor="#666666"
     borderopacity="1.0"
     inkscape:showpageshadow="2"
     inkscape:pageopacity="0.43921569"
     inkscape:pagecheckerboard="0"
     inkscape:deskcolor="#ffffff"
     showgrid="false"
     inkscape:zoom="1.072697"
     inkscape:cx="321.61925"
     inkscape:cy="257.76151"
     inkscape:current-layer="svg86"
     inkscape:pageshadow="2"
     inkscape:window-width="1920"
     inkscape:window-height="966"
     inkscape:window-x="0"
     inkscape:window-y="27"
     inkscape:window-maximized="1" /><defs
     id="defs4"><style
       id="style2">.cls-1{fill:#1a1a1a;}</style><filter
       style="color-interpolation-filters:sRGB"
       inkscape:label="Drop Shadow"
       id="filter464"
       x="-0.071977102"
       y="-0.071983216"
       width="1.1449123"
       height="1.1449246"><feFlood
         flood-opacity="0.498039"
         flood-color="rgb(0,0,0)"
         result="flood"
         id="feFlood454" /><feComposite
         in="flood"
         in2="SourceGraphic"
         operator="in"
         result="composite1"
         id="feComposite456" /><feGaussianBlur
         in="composite1"
         stdDeviation="6.26037"
         result="blur"
         id="feGaussianBlur458" /><feOffset
         dx="0.2"
         dy="0.2"
         result="offset"
         id="feOffset460" /><feComposite
         in="SourceGraphic"
         in2="offset"
         operator="over"
         result="composite2"
         id="feComposite462" /></filter><filter
       style="color-interpolation-filters:sRGB"
       inkscape:label="Drop Shadow"
       id="filter1955"
       x="-0.027737471"
       y="-0.24054064"
       width="1.0558323"
       height="1.4841801"><feFlood
         flood-opacity="0.498039"
         flood-color="rgb(0,0,0)"
         result="flood"
         id="feFlood1945" /><feComposite
         in="flood"
         in2="SourceGraphic"
         operator="in"
         result="composite1"
         id="feComposite1947" /><feGaussianBlur
         in="composite1"
         stdDeviation="6.26037"
         result="blur"
         id="feGaussianBlur1949" /><feOffset
         dx="0.2"
         dy="0.2"
         result="offset"
         id="feOffset1951" /><feComposite
         in="SourceGraphic"
         in2="offset"
         operator="over"
         result="composite2"
         id="feComposite1953" /></filter></defs><title
     id="title6">Ресурс 2</title><g
     id="g1877"
     inkscape:label="BIDS Expanded Text"
     style="display:none"
     transform="translate(22.364651,106.22763)"><path
       class="cls-1"
       d="m 222,189.76 a 4.05,4.05 0 0 0 2.51,-4 c 0,-2.77 -1.73,-4.42 -6.27,-4.42 H 211 V 199 h 7.05 c 4.44,0 7,-1.6 7,-5.08 A 3.9,3.9 0 0 0 222,189.76 Z m -8.61,-6.32 H 218 c 3,0 4.12,0.84 4.12,2.74 0,1.72 -1.47,2.75 -3.74,2.75 h -5 z m 4.7,13.43 h -4.7 V 191 h 4.95 q 4.43,0 4.42,2.82 c -0.05,2.12 -1.5,3.05 -4.76,3.05 z"
       id="path8" /><path
       class="cls-1"
       d="m 243,199 -5.62,-7.34 a 5.1,5.1 0 0 0 4.34,-5 q 0,-5.34 -6.88,-5.33 h -6.78 V 199 h 2.31 v -6.95 H 235 l 5.27,6.95 h 2.8 z m -8.08,-9 h -4.55 v -6.5 h 4.4 c 3.06,0 4.59,1.07 4.59,3.18 0,2.11 -1.7,3.26 -4.42,3.26 z"
       id="path10" /><path
       class="cls-1"
       d="m 252.58,181.25 h -1.83 L 243,199 v 0.07 h 2.34 l 2,-4.49 H 256 l 2,4.49 h 2.4 z m -4.44,11.28 3.47,-8.08 3.5,8.08 z"
       id="path12" /><path
       class="cls-1"
       d="M 262.26,181.29 V 199 h 2.3 v -17.71 z"
       id="path14" /><path
       class="cls-1"
       d="m 281,181.29 v 13.58 l -10.86,-13.58 h -1.81 V 199 h 2.23 V 185.5 L 281.4,199 h 1.81 v -17.71 z"
       id="path16" /><path
       class="cls-1"
       d="M 294.55,181.29 V 199 h 2.3 v -17.71 z"
       id="path18" /><path
       class="cls-1"
       d="m 316,181.29 -6.52,8.93 -6.74,-8.93 h -2.13 V 199 h 2.3 v -13.73 l 6.25,8.17 h 0.55 l 6.06,-8.17 V 199 h 2.3 v -17.71 z"
       id="path20" /><path
       class="cls-1"
       d="m 329.58,181.25 h -1.83 L 320,199 h 2.36 l 2,-4.49 H 333 l 2,4.49 h 2.4 z m -4.44,11.28 3.47,-8.08 3.5,8.08 z"
       id="path22" /><path
       class="cls-1"
       d="m 346.75,190 v 2.11 h 4.89 v 3.47 a 7,7 0 0 1 -4.59,1.52 6.93,6.93 0 0 1 -5,-1.88 6.63,6.63 0 0 1 -2,-5 6.89,6.89 0 0 1 1.88,-5 7.43,7.43 0 0 1 10,0.08 l 1.44,-1.51 q -2.16,-2.69 -6.68,-2.68 a 9.24,9.24 0 0 0 -6.42,15.7 9.31,9.31 0 0 0 6.7,2.51 9.73,9.73 0 0 0 6.84,-2.69 V 190 Z"
       id="path24" /><path
       class="cls-1"
       d="M 356.63,181.29 V 199 h 2.31 v -17.71 z"
       id="path26" /><path
       class="cls-1"
       d="m 375.36,181.29 v 13.58 L 364.5,181.29 h -1.81 V 199 h 2.23 V 185.5 L 375.8,199 h 1.79 v -17.71 z"
       id="path28" /><path
       class="cls-1"
       d="m 389.44,190 v 2.11 h 4.89 v 3.47 a 7.65,7.65 0 0 1 -9.6,-0.36 6.66,6.66 0 0 1 -2,-5 6.85,6.85 0 0 1 1.89,-5 7.41,7.41 0 0 1 10,0.08 l 1.45,-1.51 q -2.17,-2.69 -6.69,-2.68 a 9.24,9.24 0 0 0 -6.42,15.7 9.31,9.31 0 0 0 6.7,2.51 9.73,9.73 0 0 0 6.84,-2.69 V 190 Z"
       id="path30" /><path
       class="cls-1"
       d="m 412.39,181.29 h -5.46 V 199 h 5.22 c 3.31,0 5.81,-0.87 7.5,-2.57 a 8.82,8.82 0 0 0 2.54,-6.55 c 0,-4.61 -2.6,-8.59 -9.8,-8.59 z m -0.09,15.58 h -3.07 v -13.43 h 3.13 c 5.18,0 7.44,2.5 7.44,6.48 0,4.25 -2.43,6.95 -7.5,6.95 z"
       id="path32" /><path
       class="cls-1"
       d="M 431.81,181.25 H 430 L 422.2,199 h 2.35 l 2,-4.49 h 8.69 l 2,4.49 h 2.4 z m -4.44,11.28 3.46,-8.08 3.51,8.08 z"
       id="path34" /><path
       class="cls-1"
       d="m 437.2,181.29 v 2.15 h 6.15 V 199 h 2.31 v -15.6 h 6.19 v -2.15 z"
       id="path36" /><path
       class="cls-1"
       d="m 459.05,181.25 h -1.83 L 449.45,199 h 2.34 l 2,-4.49 h 8.69 l 2,4.49 h 2.4 z m -4.44,11.28 3.47,-8.08 3.5,8.08 z"
       id="path38" /><path
       class="cls-1"
       d="m 483.51,189.25 c -2.72,-0.74 -5.47,-1.16 -5.47,-3.37 a 2.13,2.13 0 0 1 1.3,-2 6.05,6.05 0 0 1 2.84,-0.63 6.79,6.79 0 0 1 5,1.89 l 1.5,-1.49 q -2,-2.6 -6.46,-2.59 a 7.49,7.49 0 0 0 -4.74,1.39 4.28,4.28 0 0 0 -1.83,3.49 c 0,6.53 10.95,4 10.95,8.38 0,1.69 -1.69,2.76 -3.82,2.76 a 7.6,7.6 0 0 1 -6,-2.86 l -1.5,1.62 a 7.46,7.46 0 0 0 3,2.4 9.23,9.23 0 0 0 4.29,1 7.26,7.26 0 0 0 4.61,-1.45 4.47,4.47 0 0 0 1.83,-3.67 C 489,191 486.25,190 483.51,189.25 Z"
       id="path40" /><path
       class="cls-1"
       d="m 490,181.29 v 2.15 h 6.18 V 199 h 2.3 v -15.6 h 6.17 v -2.15 z"
       id="path42" /><path
       class="cls-1"
       d="m 516,191.63 a 5.09,5.09 0 0 0 4.33,-5 c 0,-3.56 -2.27,-5.33 -6.86,-5.33 h -6.8 V 199 h 2.3 v -6.95 h 4.61 l 5.28,6.95 h 2.82 z m -2.46,-1.69 h -4.57 v -6.5 h 4.42 c 3.07,0 4.59,1.07 4.59,3.18 0,2.11 -1.78,3.32 -4.49,3.32 z"
       id="path44" /><path
       class="cls-1"
       d="m 536.36,181.29 v 9.88 c 0,3.66 -1.74,5.89 -5,5.89 a 5.09,5.09 0 0 1 -3.85,-1.6 A 6,6 0 0 1 526,191 v -9.75 h -2.3 v 10.09 a 7.51,7.51 0 0 0 2.19,5.8 7.75,7.75 0 0 0 5.5,2 7.34,7.34 0 0 0 5.13,-1.94 7.42,7.42 0 0 0 2.13,-5.75 v -10.16 z"
       id="path46" /><path
       class="cls-1"
       d="m 556.05,194.68 a 7.44,7.44 0 0 1 -10.42,0.48 6.75,6.75 0 0 1 -1.88,-5 7,7 0 0 1 1.77,-5 6.26,6.26 0 0 1 4.84,-1.9 7.26,7.26 0 0 1 5.27,2.17 l 1.49,-1.43 a 9.38,9.38 0 0 0 -13.3,-0.36 9.12,9.12 0 0 0 -2.49,6.51 8.57,8.57 0 0 0 9.16,9.11 8.48,8.48 0 0 0 6.88,-3.12 z"
       id="path48" /><path
       class="cls-1"
       d="m 558.11,181.29 v 2.15 h 6.15 V 199 h 2.31 v -15.6 h 6.19 v -2.15 z"
       id="path50" /><path
       class="cls-1"
       d="m 587.22,181.29 v 9.88 c 0,3.66 -1.71,5.89 -4.93,5.89 a 5.14,5.14 0 0 1 -3.87,-1.6 6,6 0 0 1 -1.54,-4.42 v -9.75 h -2.31 v 10.09 a 7.52,7.52 0 0 0 2.21,5.8 7.76,7.76 0 0 0 5.51,2 7.23,7.23 0 0 0 5.1,-1.94 7.35,7.35 0 0 0 2.14,-5.75 v -10.2 z"
       id="path52" /><path
       class="cls-1"
       d="m 602.5,191.63 a 5.1,5.1 0 0 0 4.34,-5 c 0,-3.56 -2.28,-5.33 -6.88,-5.33 h -6.8 V 199 h 2.31 v -6.95 h 4.63 l 5.26,6.95 h 2.82 z m -2.5,-1.69 h -4.57 v -6.5 h 4.42 c 3.07,0 4.59,1.07 4.59,3.18 0,2.11 -1.69,3.32 -4.44,3.32 z"
       id="path54" /><path
       class="cls-1"
       d="m 612.65,196.87 v -5.79 h 9.76 V 189 h -9.76 v -5.52 h 10.48 v -2.15 H 610.35 V 199 h 13 v -2.17 z"
       id="path56" /></g><metadata
     id="metadata371"><rdf:RDF><cc:Work
         rdf:about=""><dc:title>Ресурс 2</dc:title></cc:Work></rdf:RDF></metadata><style
     type="text/css"
     id="style416"><![CDATA[
	.st0{fill:#01A601;}
]]></style><path
     class="cls-1"
     d="m 414.6518,165.51192 v -12.21 h -48.27 a 16.35,16.35 0 0 0 -1.1,-7.81 c -1.37,-3.24 -3.18,-7.09 -4.5,-9.81 2.73,-3.16 5.34,-7.95 4.88,-13.57 a 27.26,27.26 0 0 0 -3.62,-11.52 c 3,-5.72 8,-18.190001 0.86,-29.780001 -5.86,-9.54 -15.44,-12.29 -20.62,-13.07001 -7.13,-1.08 -13.76,0.18 -17.3,3.28001 a 26.25,26.25 0 0 0 -5.39,6.5 c -5.87,-1.16 -13.91,-0.42 -19.49,7.26 a 22.13,22.13 0 0 0 -4,16.110001 25.47,25.47 0 0 0 -15.91,22.06 28,28 0 0 0 1.49,12.77 c -7.53,6.44 -16.25,19.64 -12.3,38.64 a 76.71,76.71 0 0 0 3.47,12.74 c -2.53,4.26 -6.47,12.36 -5.25,20.78 1,6.71 4.89,12 7.48,14.9 -1,5.81 -2.09,18.51 6.18,27.49 6.82,7.37 16.23,8.61 22.51,8.46 2.54,7 9.24,20 24.54,21.85 a 54.14,54.14 0 0 0 6.06,0.38 c 16.88,0 27.45,-9.2 31.57,-17.82 a 45.94,45.94 0 0 0 4.15,-15.18 h 44.56 v -12.21 h -44.77 c -0.1,-0.69 -0.15,-1.35 -0.27,-2 -1.52,-9.6 -3.86,-15.09 -6.34,-18.1 a 66.62,66.62 0 0 0 2.51,-10 h 48.87 v -12.29 h -48.45 v -0.09 a 53.7,53.7 0 0 0 -6.34,-18.65 21.52,21.52 0 0 0 2.27,-9.13 z m -124.17,-41.68 c 0.7,-8.19 5.77,-11.76 9.27,-13.26 5.62,0 12.41,16 21.17,13.26 -5.32,-4.47 -8.76,-8.33 -13.89,-21.36 -0.09,-0.24 -2.46,-6.280001 1.41,-11.620001 3.39,-4.67 8.56,-3.52 10.71,-2.78 5.58,3.13 3,23.470001 10.08,20.500001 7.08,-2.97 17.58,-9.000001 14.84,-15.340001 -3.09,0.35 -9.61,12.130001 -14.58,7.130001 -4.17,-4.170001 -3.22,-12.000001 -2,-15.620001 a 16.41,16.41 0 0 1 4.25,-5.93 c 0.63,-0.49 4.15,-1.67 9.39,-0.78 3.32,0.57 9.37,2.38 12.94,8.19 5.84,9.53 -2.33,21.490001 -2.4,21.590001 a 5.23,5.23 0 0 0 0.3,6.34 16.9,16.9 0 0 1 3.41,8.78 c 0.33,4.18 -3.94,7.49 -4,7.49 -2.63,0.44 -5.68,-5.6 -5.68,-5.6 a 27.46,27.46 0 0 0 4.14,12.08 c 0,0 3.67,7.35 5.88,12.59 0.92,2.19 0.08,5.47 -1.39,8.4 a 0.2,0.2 0 0 1 0,-0.08 c -3.44,3.74 -8.61,4.6 -12.76,1.87 -4.15,-2.73 -3.81,-5.83 -5.83,-15.72 a 38.21,38.21 0 0 0 -1,-3.86 v 0 c 0,0 -2.79,-10.84 -1.36,-16 1,-3.53 3.39,-6.75 9.64,-6.18 -3.36,-5.85 -10.46,-4.76 -13.83,-0.24 -3,4.09 -2.92,10.21 -1.89,13.16 -7,-3.83 -12.06,1.94 -12.06,1.94 0,0 6.33,0.14 10.12,4.16 1.9,2 3,4.53 3.85,12 0.85,7.47 5.6,15.51 11.48,17.51 a 27.25,27.25 0 0 0 10.69,1.44 16,16 0 0 1 -1.81,4 5.23,5.23 0 0 0 0,5.8 43.79,43.79 0 0 1 6.3,17 c 0.86,6.5 -1.22,14 -2.59,18 -7.83,-1.29 -16.46,-11.92 -17.52,-19.37 a 12.54,12.54 0 0 0 -1.09,-3.96 h 0.14 c 4.87,-0.51 5.52,-14.13 5.52,-14.13 0,0 -6.55,11.54 -16.69,7.13 -5.75,-2.59 -7.18,-12.48 -7.75,-18.36 -0.55,-5.72 3.49,-13 3.71,-13.47 -0.38,0.23 -6.64,4.09 -8.59,7.29 -1.95,3.2 -5,4.18 -11.62,2.6 -6.62,-1.58 -10.61,-14.45 -6.95,-19.67 a 5.28,5.28 0 0 0 0.28,-0.48 3.54,3.54 0 0 0 0.27,-0.32 c 2.31,-1.76 12.12,3.12 18,-2.67 -13.62,0 -19.22,-4.35 -19.22,-4.35 -0.63,-1.12 -1.73,-3.94 -1.29,-9.1 z m 66.12,134.86 c -3.1,6.51 -12,13.47 -27,11.64 -11.62,-1.43 -15.81,-13.78 -16.77,-17.24 a 73.64,73.64 0 0 0 6.1,-8.35 114.87,114.87 0 0 1 -13.55,3.56 c -3.81,0.31 -11.69,0.23 -16.55,-5 -4.45,-4.86 -4.45,-12.18 -3.88,-16.67 6.25,2.22 12.54,1.84 17.89,-3.87 -6.23,0.19 -13.64,-1.28 -19.49,-6.27 -1.5,-1.52 -4.88,-5.37 -5.52,-10 -0.56,-3.9 0.89,-8.21 2.49,-11.49 2.65,5.58 10.86,10.21 17.36,14.31 7.26,4.59 17.35,5.56 17.77,11.75 0.94,13.28 -17.51,17.91 -17.51,17.91 6.46,-0.06 16.54,-1.52 19.65,-5.1 3.84,-0.38 10,1.44 14.8,5.08 5.92,4.5 9.08,14.44 9.08,14.44 1.62,-6.49 -2.87,-14.91 -5.73,-19.7 -2.86,-4.79 -3,-14.15 -3,-14.15 0,0 -4.31,6.12 -3.73,11.2 -1.51,-1.81 -5.34,-2.34 -8.23,-2.49 a 22.57,22.57 0 0 0 1.19,-8.89 c -0.17,-2.62 -3.37,-5.73 -7.6,-8.7 6.49,-1.85 10.89,-12.4 4.87,-14.67 0,2 -3.37,10.67 -17.28,7.47 -0.8,-0.4 -1.56,-0.76 -2.28,-1.11 a 34.41,34.41 0 0 1 -15.59,-15.16 c -0.55,-1.22 -1,-2.36 -1.48,-3.58 -0.38,-0.82 -1.51,-3.62 -3.13,-11.4 -2.13,-10.28 0.46,-17.75 3.74,-22.74 -0.48,8.42 7.79,15.35 13.45,17.93 6.3,2.85 13.2,-1.59 13.62,2.15 0.42,3.74 2,4.72 0.57,8.89 -1.43,4.17 -10,6.16 -19.64,1.15 -0.29,9 21.22,9.6 24.52,5.73 1.16,3.74 9.33,3.74 13.07,6.75 3.74,3.01 4.87,16.34 9.31,19.94 4.44,3.6 13.78,7.6 18.65,13.34 0.14,0.15 0.25,0.28 0.36,0.42 a 51.81,51.81 0 0 1 2.25,9.59 c 1.43,8.66 0.48,16.51 -2.78,23.33 z"
     id="path66" /><polygon
     class="cls-1"
     points="181.32,85.21 172.16,85.21 172.16,75.44 181.32,85.18 "
     id="polygon68"
     transform="translate(267.3818,67.361909)" /><polygon
     class="cls-1"
     points="155.47,106.07 155.47,75.44 169.03,75.44 169.03,88.34 181.32,88.34 181.32,106.07 "
     id="polygon70"
     transform="translate(267.3818,67.361909)" /><polygon
     class="cls-1"
     points="181.32,127.13 172.16,127.13 172.16,117.35 181.32,127.09 "
     id="polygon72"
     transform="translate(267.3818,67.361909)" /><polygon
     class="cls-1"
     points="155.47,147.99 155.47,117.35 169.03,117.35 169.03,130.25 181.32,130.25 181.32,147.99 "
     id="polygon74"
     transform="translate(267.3818,67.361909)" /><polygon
     class="cls-1"
     points="181.32,169.28 172.16,169.28 172.16,159.5 181.32,169.24 "
     id="polygon76"
     transform="translate(267.3818,67.361909)" /><polygon
     class="cls-1"
     points="155.47,190.13 155.47,159.5 169.03,159.5 169.03,172.4 181.32,172.4 181.32,190.13 "
     id="polygon78"
     transform="translate(267.3818,67.361909)" /><path
     class="cls-1"
     d="m 410.0818,96.971919 h -14.88 l -0.61,-1.85 a 2.3,2.3 0 0 0 -2.21,-1.58 h -11.17 a 2.3,2.3 0 0 0 -2.19,1.6 l -0.59,1.83 h -1.83 a 3.65,3.65 0 0 0 -3.65,3.640001 v 22.06 a 3.65,3.65 0 0 0 3.65,3.69 h 33.48 a 3.63,3.63 0 0 0 3.63,-3.64 v -22.11 a 3.63,3.63 0 0 0 -3.63,-3.640001 z m -34.56,5.830001 2.23,-3.000001 h 31.13 l 1.65,3.000001 z"
     id="path80" /><polygon
     class="cls-1"
     points="159.85,51.11 149.43,51.11 149.43,38.9 172.06,38.9 172.06,68.3 159.85,68.3 "
     id="polygon82"
     transform="translate(267.3818,67.361909)" /><path
     class="st0"
     d="m 403.5689,132.1543 c 16.18827,0 31.50774,3.68801 45.19596,10.26616 -5.60295,4.43272 -10.79809,8.68812 -15.63861,12.78395 -9.22005,-3.35113 -19.16707,-5.17741 -29.53962,-5.17741 -23.88346,0 -45.51511,9.68105 -61.15372,25.33739 -15.65635,15.65635 -25.3374,37.27027 -25.3374,61.15374 0,23.88346 9.68105,45.49738 25.3374,61.15372 15.65634,15.65635 37.27026,25.3374 61.15372,25.3374 23.88347,0 45.51512,-9.68105 61.15373,-25.3374 15.65635,-15.65634 25.3374,-37.27026 25.3374,-61.15372 0,-5.67388 -0.54966,-11.24137 -1.59578,-16.61382 4.48591,-5.85118 9.0782,-11.68464 13.77687,-17.4649 3.68802,10.67398 5.69161,22.14585 5.69161,34.07872 0,28.81264 -11.68464,54.91246 -30.56799,73.79582 -18.88337,18.88337 -44.98319,30.568 -73.79584,30.568 -28.81264,0 -54.91246,-11.68463 -73.79582,-30.568 -18.9011,-18.88336 -30.58573,-44.98318 -30.58573,-73.79582 0,-28.81265 11.68463,-54.91248 30.568,-73.79584 18.88336,-18.88336 44.98318,-30.56799 73.79582,-30.56799 z m -48.61801,87.21809 25.46151,-0.33689 1.8972,0.49646 c 5.14195,2.96106 9.98248,6.34765 14.50384,10.17752 3.26248,2.76601 6.38311,5.78026 9.34417,9.04273 9.13139,-14.69888 18.86563,-28.19206 29.14953,-40.60367 11.2591,-13.59956 23.20969,-25.94024 35.76314,-37.19933 l 2.48232,-0.95747 h 27.78425 l -5.60295,6.22353 c -17.21666,19.1316 -32.83754,38.9015 -46.95131,59.29199 -14.11376,20.40822 -26.73813,41.47248 -37.96177,63.15732 l -3.49298,6.73772 -3.20928,-6.86184 c -5.92211,-12.71302 -13.01445,-24.37993 -21.47207,-34.80567 -8.45762,-10.42575 -18.29824,-19.68125 -29.77011,-27.55375 z"
     id="path418"
     style="fill:#00e900;fill-opacity:1;stroke-width:1.77309;filter:url(#filter464)"
     inkscape:label="CheckMark"
     transform="matrix(0.53437012,0,0,0.53437012,222.50331,90.669059)" /></svg>
